<svg width="16" height="16" viewBox="0 0 16 16" fill="none" xmlns="http://www.w3.org/2000/svg">
<path fill-rule="evenodd" clip-rule="evenodd" d="M3.3125 0.0759C3.3125 0.137567 3.35392 0.169867 3.53313 0.247833C3.65446 0.3006 3.79518 0.3786 3.84579 0.421133C4.06545 0.605733 4.17416 1.0853 4.21505 2.05C4.25387 2.96517 4.25387 13.0809 4.21508 13.9667C4.15974 15.2304 4.02229 15.5838 3.51427 15.7688C3.34508 15.8304 3.3125 15.855 3.3125 15.9211V16H7.77071C10.6149 16 12.251 15.9882 12.29 15.9674C12.3235 15.9494 12.368 15.8861 12.3887 15.8267C12.4159 15.7488 12.6918 13.5247 12.6918 13.3834C12.6918 13.3742 12.6421 13.3667 12.5814 13.3667H12.471L12.3763 13.7062C12.2098 14.303 12.0385 14.649 11.731 15.0096C11.5165 15.2611 11.4026 15.3448 11.0396 15.5177C10.5147 15.7676 10.4154 15.7766 8.04388 15.7918L5.98277 15.8049V11.5358V7.26667H6.74806C7.68229 7.26667 7.95549 7.2993 8.27539 7.44907C8.72927 7.66153 8.94396 7.9495 9.08999 8.54167C9.15528 8.8064 9.16923 8.83333 9.24126 8.83333H9.3206V7.15V5.46667H9.24239C9.17133 5.46667 9.15608 5.4977 9.07467 5.80787C9.02544 5.99557 8.9525 6.2164 8.91262 6.29867C8.81091 6.50847 8.6014 6.70553 8.35012 6.82763C7.97428 7.01033 7.816 7.03467 6.85895 7.05677L5.98277 7.077V3.63617V0.195333L7.76016 0.2095C9.65395 0.224633 9.72371 0.230067 10.2542 0.404433C11.0605 0.669367 11.4849 1.1074 11.86 2.06153C11.9787 2.36353 11.9928 2.38397 12.0888 2.39377C12.1592 2.40097 12.1911 2.38967 12.1911 2.35763C12.1911 2.21703 11.8167 0.2159 11.7755 0.136367C11.7485 0.0843667 11.6921 0.0326 11.6501 0.0213666C11.6081 0.0101 9.7149 0.000699998 7.44307 0.000466665L3.3125 0V0.0759Z" fill="black"/>
</svg>
