<svg width="98" height="94" viewBox="0 0 98 94" fill="none" xmlns="http://www.w3.org/2000/svg">
<g clip-path="url(#clip0_1118_12205)">
<path fill-rule="evenodd" clip-rule="evenodd" d="M80.3142 11.0178C79.5036 10.9437 78.2029 10.5251 77.423 10.0879C76.6295 9.64282 75.6268 9.43483 75.1445 9.61537C74.6708 9.79258 73.4751 9.89992 72.4869 9.85401C70.138 9.74417 68.3449 10.3282 66.1274 11.926C65.1338 12.6418 64.473 12.9549 64.6595 12.6212C64.8457 12.2879 65.047 11.124 65.1072 10.0344C65.1673 8.94483 65.4206 7.69369 65.6704 7.25386C66.3387 6.07565 66.1743 4.98351 65.3085 4.84833C64.8753 4.78062 64.1803 3.96355 63.6937 2.9501C62.6835 0.84602 62.0301 0.394799 60.23 0.559067C59.4938 0.625826 57.983 0.633041 56.8731 0.574742C55.7408 0.514961 54.309 0.838694 53.6098 1.31242C52.2545 2.23103 49.1749 7.14853 48.6251 9.27256C48.3239 10.4366 48.2522 10.4713 47.771 9.69122C47.4817 9.22305 46.0037 8.12274 44.4854 7.24617C41.5257 5.53739 39.5467 5.17943 37.7448 6.02675C37.1593 6.3019 35.3803 6.63832 33.7909 6.77364C31.0476 7.00758 30.7896 7.13736 28.6765 9.35138C27.4529 10.6341 25.5207 13.0213 24.3833 14.6571L22.3151 17.6311L23.7173 17.3336C25.898 16.8701 27.1831 17.0551 28.9748 18.0895C30.0737 18.724 31.2705 18.9982 32.5448 18.907C33.5993 18.8318 35.2561 19.1074 36.2274 19.5196C37.1986 19.9319 37.9747 20.295 37.9528 20.3267C37.9309 20.3583 36.7934 21.1192 35.4251 22.0173C33.2187 23.4658 32.7202 24.0319 31.0161 27.0265C28.1998 31.9761 27.6079 36.8237 30.1742 33.9205C32.0826 31.7618 34.6267 31.7797 38.4659 33.978C40.0525 34.8867 41.656 35.4473 43.0448 35.5796C45.6123 35.824 45.5733 35.8057 45.1347 36.5653C44.6688 37.3722 47.0799 46.5977 48.0784 47.829C48.9201 48.8668 48.8213 49.2198 46.0284 55.1583C44.8269 57.7131 43.8444 58.5604 44.1283 56.7966C44.1918 56.4034 44.0066 55.9448 43.7172 55.7777C43.4275 55.6104 43.0345 54.7672 42.8433 53.9034C41.8729 49.5158 36.8381 46.7377 29.1106 46.3255C25.6829 46.143 23.8397 46.7538 16.0246 50.6624C12.6652 52.3423 9.00976 54.1311 7.90093 54.6371C5.98024 55.5138 0.930603 58.4837 0.70951 58.8667C0.651756 58.9667 1.23206 59.0751 1.999 59.1084C2.76571 59.142 4.61257 59.47 6.10313 59.8383C7.5937 60.2065 10.4553 60.6869 12.4624 60.9058C14.4695 61.1246 17.3685 61.498 18.9046 61.7346C20.4408 61.9718 23.5278 62.0671 25.7643 61.9469C29.7784 61.7308 36.015 60.4235 36.4256 59.7124C36.5418 59.5111 35.0819 59.7212 33.1817 60.1799C26.9076 61.6937 20.9278 61.8825 15.9286 60.725C14.6739 60.4346 12.2072 60.0712 10.4468 59.9177C5.79866 59.5119 4.49204 59.0123 8.24204 59.0746C10.016 59.1042 11.7771 59.0773 12.1557 59.0146C12.5341 58.9522 15.7339 58.8844 19.2656 58.8634C22.7975 58.8429 27.4661 58.6176 29.6399 58.3632C34.6944 57.7714 39.7588 57.5224 39.5544 57.8764C39.4673 58.0272 38.881 58.3405 38.2511 58.5723C37.4568 58.8651 37.6205 58.8924 38.7852 58.6613C39.7087 58.4781 41.1661 57.8243 42.0238 57.2086C43.4395 56.1916 43.5798 56.1798 43.548 57.0769C43.4655 59.4155 41.2691 63.4841 36.1887 70.7086C28.5153 81.621 26.8883 83.5629 21.3809 88.3854C18.5927 90.8265 16.3707 93.0464 16.4428 93.3194C16.6702 94.1806 17.819 93.3715 22.4508 89.0881C26.8577 85.0134 33.6136 77.1245 35.5111 73.8378C36.4442 72.2217 40.6819 68.4229 42.7423 67.3555L43.7878 66.8139L44.7101 68.8974C45.2174 70.0432 46.6436 72.0754 47.8798 73.4128C51.2586 77.0698 54.6138 78.8084 62.5327 81.0077C68.7084 82.7227 69.2403 82.9454 71.3146 84.6827C74.8635 87.6554 74.8611 87.6551 74.8965 85.2315C74.9398 82.2934 73.8562 77.3934 72.5352 74.5509L71.4092 72.1288L72.4539 75.4434C73.028 77.2664 73.5655 79.5462 73.6477 80.5101L73.7973 82.2621L73.0763 80.4069C72.0305 77.7159 70.0647 74.2828 68.1923 71.8778C66.8282 70.1259 65.7922 69.335 61.9111 67.0802C56.3155 63.8292 53.995 63.3127 49.5953 64.3383C46.1379 65.1442 47.1766 64.3064 51.3336 62.9354C58.1791 60.6782 65.6891 63.697 70.0463 70.4573C70.6463 71.3888 71.1958 72.0505 71.2669 71.9274C71.3379 71.8043 70.5427 70.461 69.4993 68.9421C67.7296 66.3662 67.3282 66.025 63.5166 63.8515C59.9048 61.7923 59.1373 61.5091 56.8984 61.4112C53.7886 61.2757 48.9997 62.694 46.4277 64.5133C45.371 65.2605 43.838 66.1895 43.0208 66.5774C42.2036 66.9653 40.8471 67.8233 40.0067 68.4843L38.4786 69.6861L39.1767 68.4313C40.034 66.8891 44.6227 63.0101 49.0625 60.0742C50.887 58.8679 53.7335 56.6116 55.3886 55.06C57.6843 52.9077 59.6301 51.6282 63.5982 49.6635L68.7987 47.0881L73.0826 47.7306C76.751 48.2808 77.9395 48.2173 81.3543 47.2888C83.5476 46.6925 86.6456 45.6677 88.2389 45.0115C93.7778 42.7305 98.1079 39.156 96.999 37.7801C96.2987 36.911 88.413 36.669 85.0037 37.4115L81.7682 38.1163L81.3995 36.8781C81.1968 36.1973 80.8342 35.5263 80.5941 35.3877C79.6763 34.8578 80.2544 34.049 84.198 30.3477C88.7958 26.0327 90.7221 23.3977 89.848 22.6185C88.5427 21.4554 81.8147 24.0482 77.6008 27.3381L75.4398 29.0253L73.4483 27.6926C72.3528 26.9591 71.4323 26.2771 71.4025 26.1765C71.3727 26.0759 72.3231 26.0036 73.5143 26.0161C75.3304 26.0345 75.9561 25.7758 77.3834 24.4163C78.3199 23.5242 79.8499 21.5175 80.7837 19.9564C82.1774 17.6267 82.6731 17.097 83.5549 16.9975C84.1456 16.9312 84.8571 17.0085 85.1364 17.1697C85.8242 17.5668 86.1086 16.9641 85.7263 15.9196C85.4466 15.1553 82.5115 11.4815 81.9926 11.246C81.8799 11.195 81.1245 11.0923 80.3142 11.0178ZM80.4629 11.656C79.6598 11.569 78.4944 11.2144 77.8728 10.8686C76.7319 10.2333 70.6456 10.3592 68.5361 11.0612C66.859 11.62 64.3437 13.9269 62.6704 16.4427L61.1682 18.7015L63.4273 16.8355C64.6696 15.8089 66.3715 14.6537 67.2082 14.2678C68.9326 13.4732 71.3174 13.6246 72.2919 14.591C72.7127 15.008 73.7129 15.1228 75.0848 14.9109C77.4775 14.5417 81.0572 14.6176 81.1687 15.0399C81.2087 15.1918 79.9603 15.3072 78.3943 15.2971C73.5018 15.2645 67.1117 17.1761 64.2489 19.5288L63.1967 20.3937L65.2344 19.8769C66.5156 19.5516 67.6628 19.5856 68.3253 19.9681C68.9048 20.3027 69.8408 20.5591 70.4052 20.5375C70.97 20.516 71.4798 20.6811 71.5389 20.9039C71.6773 21.4282 68.633 23.0838 67.7761 22.9501C66.8424 22.8044 66.8101 22.236 67.704 21.6768C68.9933 20.8706 67.7879 20.0747 65.8189 20.4321C63.9361 20.7737 60.6126 22.689 60.7826 23.3342C60.8384 23.5457 61.969 23.7321 63.295 23.7484C64.6207 23.7652 66.6707 24.175 67.8504 24.6597C69.1935 25.2116 70.956 25.4779 72.5676 25.3731C75.8381 25.1606 78.412 23.1606 80.5719 19.1542C81.8927 16.7053 82.1039 16.5026 83.558 16.2881C84.8437 16.0983 85.059 15.934 84.7644 15.3685C84.5675 14.9901 84.1808 14.5465 83.9055 14.3828C83.6303 14.2198 83.0715 13.5752 82.6638 12.9501C82.0485 12.0066 81.6761 11.788 80.4629 11.656ZM59.7177 1.45274C58.9414 1.56564 57.6467 1.52728 56.8399 1.36781C55.1006 1.02373 53.4218 2.08332 51.3393 4.84016C49.1762 7.7036 48.5791 11.032 49.4989 15.1013C49.9069 16.9066 50.409 18.4798 50.6149 18.5971C50.821 18.714 51.591 18.4552 52.3255 18.0216C53.7515 17.1803 55.3161 17.6549 55.6818 19.0398C55.8394 19.6367 56.0715 19.3914 56.7905 17.8684C58.9786 13.2338 55.971 8.83813 53.5182 13.0865C53.0467 13.9031 52.491 14.4732 52.2831 14.3532C51.7334 14.0359 51.957 11.3114 52.6277 10.1496C53.2062 9.14774 54.3066 9.26625 54.3353 10.3337C54.3444 10.6718 54.7817 10.829 55.5269 10.7611C57.145 10.6137 57.3238 10.7815 57.8071 12.9024L58.2303 14.7582L58.5834 12.889C59.0627 10.3522 58.9026 7.07587 58.2144 5.3385C57.9021 4.54913 57.8222 4.00491 58.0371 4.12898C58.7524 4.54196 59.6387 9.7855 59.3858 12.1101C59.2485 13.3709 58.794 15.7286 58.3757 17.3498L57.6149 20.2971L59.6757 16.2314C62.1993 11.254 62.8455 9.26742 62.6172 7.19222C62.5116 6.233 62.7039 5.35255 63.0966 4.99212C63.5395 4.58611 63.5834 4.02535 63.2321 3.26503C62.5429 1.77302 61.4377 1.20317 59.7177 1.45274ZM64.2532 5.87872C63.3166 5.98349 63.2708 6.07533 63.2817 7.81864C63.2935 9.71155 61.3372 14.7529 59.0453 18.7351C58.3751 19.9003 58.0087 20.8037 58.2314 20.7432C58.8124 20.5852 61.5909 15.3266 62.6974 12.2903C63.215 10.8697 64.005 9.08758 64.4529 8.32968C65.5604 6.45625 65.5022 5.73911 64.2532 5.87872ZM87.9744 23.5703C86.9546 23.9642 79.1613 29.0482 77.8955 30.145C76.9523 30.9625 76.936 31.1099 77.716 31.7853C78.6631 32.6056 78.874 32.4877 82.2234 29.2645C83.271 28.2563 85.1115 26.7284 86.3129 25.8694C88.4915 24.3122 89.4354 23.006 87.9744 23.5703ZM63.6497 11.277C63.274 12.2063 62.6147 13.9358 62.1844 15.1201C61.4335 17.1875 61.4612 17.1602 62.8778 14.4378C63.689 12.8778 64.3486 11.1486 64.3431 10.5947C64.3345 9.76289 64.2137 9.88173 63.6497 11.277ZM73.7425 16.3283C72.4989 16.7722 71.0274 18.9231 71.7016 19.3124C71.9378 19.4488 72.1845 19.2275 72.25 18.8204C72.3158 18.4134 72.4635 18.257 72.5784 18.4728C72.8074 18.902 74.6157 17.7525 75.14 16.8444C75.5968 16.0531 75.0647 15.8569 73.7425 16.3283ZM83.3763 24.5371C81.664 25.2939 79.6494 26.5337 78.8997 27.293C78.1499 28.0516 77.0764 28.913 76.514 29.2062C75.7076 29.6274 75.5716 29.8396 75.8708 30.2109C76.1113 30.5092 77.3545 29.8655 79.2747 28.4468C80.9384 27.218 83.3133 25.5672 84.5521 24.7778C85.7913 23.9886 86.7338 23.3021 86.6473 23.2522C86.5608 23.2022 85.0886 23.7804 83.3763 24.5371ZM68.9352 14.4703C67.2282 14.742 64.5381 16.6234 62.0733 19.2694C59.0584 22.507 59.3404 22.7792 62.8767 20.0448C64.6342 18.6858 67.201 17.2151 68.843 16.6267C70.4279 16.0584 71.7671 15.5197 71.819 15.4298C72.0746 14.9871 70.0092 14.2995 68.9352 14.4703ZM85.9999 26.9006C84.9693 27.6753 83.2146 29.2407 82.1005 30.3794C80.9865 31.518 79.8169 32.6596 79.5014 32.9166C79.186 33.1737 79.1085 33.4879 79.3296 33.6156C79.5507 33.7433 80.588 32.9938 81.6342 31.9504C82.6808 30.9072 84.5372 29.1197 85.76 27.9791C86.9823 26.8384 87.9583 25.8118 87.9283 25.698C87.8982 25.5843 87.0304 26.1253 85.9999 26.9006ZM53.1459 10.1883C52.9756 10.5057 52.7834 11.4378 52.7191 12.2604L52.6017 13.7556L53.1613 12.2552C53.7342 10.7192 53.7222 9.11483 53.1459 10.1883ZM69.5821 21.345C68.254 21.8948 67.6449 22.3523 68.2687 22.3316C68.8932 22.3107 70.6845 21.3302 70.3994 21.1656C70.3114 21.1148 69.9435 21.1957 69.5821 21.345ZM40.3638 6.30296C39.6131 6.3687 38.1388 6.62986 37.0885 6.88314C36.0378 7.13619 34.2663 7.48473 33.1521 7.65787C30.8524 8.01563 28.8686 9.71916 25.8881 13.8962L24.0792 16.4317L25.3429 16.3168C26.062 16.251 27.373 16.6437 28.3846 17.2278C29.6721 17.9711 30.6811 18.1942 32.041 18.0363C33.2616 17.8948 34.4313 18.1138 35.3805 18.6618C36.2498 19.1637 37.1895 19.3697 37.7013 19.1712C40.5647 18.0584 41.3579 18.0766 44.1052 19.3184C47.4601 20.8354 47.8862 20.8391 48.7369 19.3577C49.5703 17.907 48.3959 11.3868 47.0105 9.77315C45.5241 8.04229 41.9292 6.16526 40.3638 6.30296ZM92.7561 38.2893C90.1743 38.2372 83.1386 39.7291 81.5751 40.6598C81.2009 40.8825 80.7 41.6712 80.4623 42.4125L80.0298 43.7601L85.1655 42.0315C87.9899 41.081 91.5146 39.9936 92.9979 39.6147C94.481 39.2362 95.6601 38.7957 95.6179 38.6359C95.5757 38.476 94.2881 38.3198 92.7561 38.2893ZM87.5413 42.0345C82.7391 43.5394 79.724 44.7377 79.4212 45.2621C79.0485 45.9076 80.1508 45.7416 84.2961 44.529C89.44 43.0244 89.5008 43.0194 85.8295 44.402C83.7266 45.1937 80.8476 46.2064 79.4317 46.653C77.2232 47.3483 77.0893 47.444 78.4892 47.3243C81.4952 47.068 88.5758 44.4657 89.6494 43.2224C89.9735 42.8473 91.334 42.0792 92.6726 41.5156C94.8662 40.5918 95.7738 39.9836 95.3363 39.731C95.2502 39.6813 91.7426 40.7176 87.5413 42.0345ZM66.0908 24.7629C64.9626 24.4497 63.7719 24.2661 63.4443 24.3551C62.6351 24.5752 62.2851 26.38 62.9744 26.778C63.2801 26.9545 63.4197 27.2904 63.2848 27.5241C63.1276 27.7964 63.6755 28.217 64.808 28.6931L66.5766 29.4371L64.6442 28.8971C63.1465 28.4784 62.3057 28.5723 60.9054 29.3144C58.9154 30.3693 58.0851 30.2594 58.7924 29.0344C59.1764 28.3693 59.0908 28.2344 58.2678 28.2105C56.3752 28.1551 56.748 27.8588 59.0166 27.6159C60.6193 27.444 61.4692 27.0854 61.8539 26.4192C63.0268 24.3876 61.4654 24.3885 55.9541 26.4219C55.3773 26.6344 54.7453 26.716 54.5494 26.6029C54.3531 26.4896 54.4753 25.0362 54.8205 23.3723C55.5539 19.8356 55.0851 18.1957 53.3722 18.3076C51.4051 18.4359 51.2795 19.2752 52.9071 21.4127C53.7483 22.5178 54.2671 23.4681 54.0592 23.5246C53.8518 23.581 53.1377 22.9322 52.4728 22.0825C50.9774 20.172 50.5954 19.9405 50.1654 20.6852C49.9301 21.0928 50.2339 21.5063 51.1618 22.042C51.8961 22.466 52.5028 23.0366 52.5097 23.3105C52.5176 23.6058 52.0198 23.3965 51.2856 22.796C50.1327 21.8527 50.0078 21.8541 49.4549 22.8118C48.737 24.0552 48.1641 23.8292 48.0313 22.2514L47.9331 21.085L44.2502 20.9109C39.7074 20.6962 38.3469 20.9825 35.713 22.7056C33.8456 23.9272 33.4401 24.4413 31.5692 27.9559C30.4285 30.0983 29.5492 32.055 29.6153 32.3032C29.6813 32.5517 30.3701 32.4982 31.1466 32.1843C33.2085 31.3506 34.1885 31.4996 38.0876 33.2412C43.1962 35.5227 47.7771 35.5952 51.0605 33.4458C53.1745 32.0623 54.4117 30.5644 54.6524 29.0976C54.9317 27.3973 55.3805 27.7621 56.13 30.2998C56.4718 31.4547 57.4118 33.0785 58.2191 33.9072C60.0121 35.7474 64.5557 38.0497 69.6914 39.719C73.7683 41.0443 76.4022 42.4019 77.822 43.9094L78.7514 44.8957L79.6569 42.7102C81.0672 39.3053 81.0404 37.286 79.5559 34.9956C78.8433 33.897 77.8222 32.7453 77.2857 32.4356C76.7496 32.1261 75.806 31.228 75.1885 30.4396C73.7673 28.6245 68.7717 25.5078 66.0908 24.7629ZM86.7769 37.6475C84.0399 38.0112 81.0715 39.1609 81.2383 39.7928C81.2942 40.0042 81.5743 40.0941 81.861 39.9918C82.1474 39.8899 84.0348 39.2957 86.0556 38.6711C88.0758 38.0468 89.6402 37.4844 89.5316 37.4217C89.423 37.359 88.1834 37.4608 86.7769 37.6475ZM35.5348 11.39C33.415 11.6172 29.2414 13.0313 28.889 13.6416C28.7934 13.8073 29.8433 13.4804 31.2219 12.9154C32.7747 12.2791 34.794 11.935 36.5282 12.011C38.3716 12.0916 39.0534 11.9668 38.5242 11.6446C38.082 11.3758 36.7369 11.2609 35.5348 11.39ZM44.5278 15.4448C44.8445 15.7589 45.4551 16.1114 45.8855 16.2286C46.3157 16.3462 46.0565 16.0893 45.3097 15.6581C44.563 15.227 44.2109 15.131 44.5278 15.4448ZM71.4467 31.5277C72.1982 32.0742 73.5074 32.83 74.356 33.2074C75.2047 33.5854 74.5899 33.1382 72.9898 32.2144C71.3897 31.2906 70.6953 30.9819 71.4467 31.5277ZM67.3508 29.6637C67.6675 29.9778 68.2781 30.3303 68.7085 30.4475C69.1387 30.5651 68.8795 30.3082 68.1328 29.877C67.3861 29.4459 67.0339 29.35 67.3508 29.6637ZM61.9672 27.3562C61.5914 27.5045 60.9104 27.996 60.4536 28.4487C59.7416 29.1541 59.8505 29.1581 61.2149 28.4756C62.7527 27.7066 63.3562 26.8083 61.9672 27.3562ZM76.9726 37.38C77.5785 39.9524 77.833 40.5427 77.8438 39.4007C77.8553 38.1955 77.4529 36.6064 76.9159 35.7358C76.6219 35.2597 76.6479 35.9994 76.9726 37.38ZM48.9062 20.2495C48.6962 20.5748 48.5985 21.3389 48.6892 21.9477C48.8518 23.0367 48.8563 23.0388 48.9488 22.0669C49.0007 21.5237 49.0984 20.7596 49.1659 20.3687C49.2721 19.7547 49.2365 19.7384 48.9062 20.2495ZM41.9598 19.3489C40.6266 19.0361 38.5503 19.3035 38.248 19.8271C38.155 19.9881 39.3416 20.15 40.8845 20.1874C44.4588 20.2738 44.7921 20.0135 41.9598 19.3489ZM49.7806 25.383C45.2604 24.3238 43.1423 24.0653 40.717 24.275C36.1164 24.6729 32.9037 26.312 31.4424 29.006C30.8953 30.0145 31.2292 29.8035 32.9247 28.069C34.1284 26.8378 35.6528 25.6542 36.3127 25.4392C38.8921 24.5979 44.0079 24.638 47.8205 25.5288C53.879 26.9453 54.1894 26.9989 53.2884 26.474C52.8626 26.2261 51.284 25.7352 49.7806 25.383ZM54.1142 31.7623C53.2275 33.298 51.1919 34.6121 48.7233 35.2418C47.5002 35.5542 46.4023 36.1614 46.0933 36.6967C45.4207 37.8616 47.3962 45.559 48.8652 47.4955C49.5734 48.4296 49.9422 49.8216 50.0294 51.8887C50.0998 53.5529 50.3901 54.849 50.675 54.7686C50.9596 54.6886 52.2526 53.5938 53.5479 52.3358C54.8432 51.0777 56.9558 49.2495 58.2426 48.2731C60.2503 46.7495 60.7562 46.1179 61.8082 43.8191C63.6091 39.8847 63.3757 38.7043 60.3648 36.5252C59.0277 35.5578 57.4782 34.1656 56.9218 33.4318C56.3654 32.6979 55.8943 32.2597 55.8754 32.4582C55.8564 32.6567 55.7458 34.6399 55.6298 36.8654C55.4061 41.1659 54.2526 45.9184 52.9062 48.091C52.3556 48.9793 52.4583 48.3795 53.2213 46.2509C53.844 44.5139 54.5181 42.3241 54.7196 41.3848C55.139 39.4257 55.3082 32.8842 54.9736 31.5557C54.7777 30.7762 54.6683 30.8026 54.1142 31.7623ZM72.4254 41.6252C71.8819 41.5381 70.3439 42.036 69.0072 42.7325C67.6703 43.4283 66.1509 44.0381 65.6308 44.0879C64.9544 44.1522 64.1226 44.9651 62.7085 46.9439L60.7322 49.7105L64.258 48.1579C66.4223 47.2051 68.0166 46.2031 68.3859 45.5634C68.7169 44.9902 70.0086 43.9828 71.2567 43.3242C72.5046 42.6661 73.5005 42.0501 73.4693 41.9554C73.4385 41.861 72.9685 41.7121 72.4254 41.6252ZM72.6642 43.4439L70.4397 44.3739L72.9522 43.7649C75.6291 43.1165 75.7984 43.0391 75.2437 42.7189C75.0482 42.606 73.8876 42.9321 72.6642 43.4439ZM73.0226 44.4474C71.0852 44.9847 69.3553 45.6761 69.178 45.9832C68.9959 46.2985 69.9931 46.2438 71.4683 45.8576C72.905 45.4815 74.2512 45.2667 74.4591 45.3805C74.667 45.4942 75.4737 45.4927 76.2516 45.377C77.45 45.1988 77.6113 45.0564 77.3078 44.4435C76.7846 43.386 76.8461 43.3861 73.0226 44.4474ZM67.8383 40.3971C66.8362 41.0487 65.2942 42.7056 65.5517 42.8543C65.8686 43.0373 68.7249 41.3858 69.0457 40.8337C69.4629 40.1165 68.6957 39.8392 67.8383 40.3971ZM75.6203 45.7628L73.819 45.9347L74.7066 46.704C75.195 47.1266 75.5562 47.3268 75.5088 47.1484C75.4615 46.9695 75.9129 46.7789 76.5113 46.7242C77.5818 46.6269 78.3154 46.0308 77.7235 45.7391C77.5576 45.6574 76.6108 45.6678 75.6203 45.7628ZM63.66 38.5199C63.5635 38.6871 63.5338 39.4078 63.594 40.1214C63.6603 40.9157 63.1495 42.536 62.2761 44.2987C61.0789 46.7153 60.4771 47.4656 58.5322 48.9639C57.2573 49.9456 55.0602 51.8412 53.6498 53.1761C52.2393 54.5109 50.8818 55.669 50.6329 55.7498C49.8372 56.0074 49.281 54.8359 49.2453 52.8266L49.2107 50.8737L48.5266 52.5628C48.1502 53.4917 46.6898 56.2826 45.2815 58.7649C43.0688 62.6647 42.8753 63.1547 43.8573 62.3712C44.4821 61.8723 46.4015 60.5562 48.1222 59.4463C54.821 55.1267 62.4903 47.0774 65.0668 41.6626C66.0455 39.6064 66.0409 39.4897 64.9614 38.8664C64.3423 38.509 63.7564 38.353 63.66 38.5199ZM48.7294 50.1181C48.4852 50.584 48.5237 50.7297 48.8272 50.4897C49.1022 50.2723 49.2829 49.927 49.229 49.723C49.1752 49.5189 48.9505 49.6966 48.7294 50.1181ZM35.6119 48.0418C33.3705 47.2219 27.5408 46.6597 25.6925 47.0858C23.7671 47.5299 15.6645 51.5397 15.1582 52.2993C14.9351 52.6337 13.8107 53.2912 12.6596 53.7604C11.5085 54.2295 9.31231 55.2957 7.7796 56.1301L4.99305 57.6473L10.4562 56.0582C13.4616 55.1841 16.4048 54.4357 16.9973 54.3948C17.5898 54.354 15.989 54.9193 13.44 55.6515C10.891 56.3838 8.9589 57.0715 9.14704 57.1801C9.62416 57.4556 12.8876 56.9926 16.9574 56.0719C21.2298 55.1056 25.5833 54.8645 34.4311 55.1045C42.8751 55.3337 43.613 55.0876 41.0608 52.8925C39.6498 51.6788 36.029 50.4422 32.9374 50.1183C30.3917 49.8515 25.5807 50.3719 20.7754 51.4342C15.1539 52.6767 14.5743 52.4926 19.9012 51.1567C28.5449 48.9885 35.6591 49.0413 39.5761 51.3028C40.5637 51.873 41.3299 52.1809 41.279 51.9869C41.0952 51.292 37.3293 48.6702 35.6119 48.0418ZM37.0074 52.8818C34.4527 52.4306 31.437 52.228 31.2816 52.4972C31.2279 52.5902 32.6353 52.8104 34.4089 52.9867C36.1825 53.163 38.0437 53.5441 38.5445 53.8333C39.0453 54.1224 39.6646 54.2455 39.9206 54.1068C40.5961 53.7403 39.6746 53.3531 37.0074 52.8818ZM56.7437 64.8272C54.6556 64.3464 52.2414 64.4098 49.5975 65.0143C48.1602 65.3432 46.9001 65.7572 46.7973 65.9354C46.6946 66.1132 48.0789 66.4362 49.874 66.6531C53.607 67.1041 58.3267 68.8344 63.1815 71.5331C66.2338 73.2292 66.7167 73.6586 68.5031 76.2665C69.5836 77.8438 71.0246 79.7824 71.7052 80.5744L72.9425 82.0146L72.1726 79.7648C71.1337 76.7277 68.8324 73.0847 66.4866 70.7633C64.482 68.7797 58.7551 65.2903 56.7437 64.8272ZM39.423 55.8644C35.4331 55.4589 24.0039 55.5208 20.7451 55.9657C18.1366 56.3218 9.68396 57.8626 7.73916 58.3367C6.79423 58.5669 11.5191 58.546 14.7396 58.3051C16.8205 58.1498 19.8758 58.0986 21.5288 58.1917C23.182 58.2844 26.0568 58.1426 27.9172 57.8766C29.7775 57.6106 32.7112 57.3668 34.4367 57.3345C36.1621 57.3022 38.0144 57.1925 38.553 57.0909C39.0915 56.9896 39.643 57.1147 39.7791 57.3689C39.9151 57.6235 40.2709 57.6987 40.5706 57.5362C40.9108 57.3518 40.8872 57.2485 40.5069 57.2613C39.7051 57.2876 40.0819 56.6653 41.0218 56.4098C41.9543 56.1562 41.8103 56.1075 39.423 55.8644ZM43.7027 58.8954C43.3925 59.4327 43.3535 59.7035 43.6162 59.4967C43.879 59.2905 44.1328 58.8509 44.1802 58.5198C44.2277 58.1893 44.0129 58.3581 43.7027 58.8954ZM57.3245 69.3744C53.6605 67.7388 50.8744 67.0561 47.2981 66.917C45.1408 66.8328 45.0766 66.8661 45.6396 67.7783C46.6971 69.4924 50.6335 71.8979 55.6489 73.8953C58.3086 74.9547 62.9438 77.102 65.9491 78.6673L71.4139 81.5134L68.9158 78.0079C66.0999 74.0569 63.535 72.1462 57.3245 69.3744ZM24.4183 53.1019L23.1717 53.5545L24.5902 53.3371C25.3704 53.2176 26.1082 53.1158 26.2293 53.1112C26.3506 53.1062 26.2731 53.0005 26.0574 52.876C25.8413 52.7512 25.1041 52.8528 24.4183 53.1019ZM20.9628 53.712L19.7162 54.1645L21.0188 53.924C22.2427 53.698 22.6535 53.5158 22.3432 53.3366C22.2695 53.2941 21.6486 53.4629 20.9628 53.712ZM63.6035 78.0341C62.3915 77.4235 59.2972 76.0876 56.7274 75.0661C54.1307 74.0337 50.5829 72.2756 48.7422 71.1092L45.4301 69.0094L46.8536 71.0103C50.1589 75.6555 53.9278 77.8538 62.7674 80.293C66.9502 81.4475 68.798 82.1752 70.6096 83.3821C73.2988 85.1734 73.6643 84.9363 71.4845 82.8145C70.0808 81.4476 68.6202 80.5616 63.6035 78.0341Z" fill="#F6C4C8"/>
</g>
<defs>
<clipPath id="clip0_1118_12205">
<rect width="98" height="94" fill="white"/>
</clipPath>
</defs>
</svg>
